<svg xmlns="http://www.w3.org/2000/svg" data-name="Layer 1" viewBox="0 0 100 100" x="0px" y="0px">
    <title>67 all</title>
    <path d="M88,89.5v-5H98v-30H2v30H12v5h6v-5H82v5ZM8,60.5H92v18H8Z"/>
    <rect x="48" y="64.5" width="6" height="10"/><rect x="38" y="64.5" width="6" height="10"/>
    <rect x="28" y="64.5" width="6" height="10"/><rect x="18" y="64.5" width="6" height="10"/>
    <path d="M74,61.5a8,8,0,1,0,8,8A8,8,0,0,0,74,61.5Zm0,10a2,2,0,1,1,2-2A2,2,0,0,1,74,71.5Z"/>
    <rect x="48" y="32.5" width="6" height="10"/><rect x="38" y="32.5" width="6" height="10"/>
    <rect x="28" y="32.5" width="6" height="10"/><rect x="18" y="32.5" width="6" height="10"/>
    <path d="M74,29.5a8,8,0,1,0,8,8A8,8,0,0,0,74,29.5Zm0,10a2,2,0,1,1,2-2A2,2,0,0,1,74,39.5Z"/>
    <path d="M2,23.52v26a3,3,0,0,0,3,3H95a3,3,0,0,0,3-3V23.75s0-.07,0-.1a3,3,0,0,0,0-.4c0-.06,0-.12,0-.18a3,3,0,0,0-.11-.36c0-.05,0-.1-.05-.15a3,3,0,0,0-.24-.45L97.41,22a3,3,0,0,0-.24-.29L97,21.55l-.13-.12L81.9,9.18A3,3,0,0,0,80,8.5H21a3,3,0,0,0-1.8.6l-16,12a3,3,0,0,0-.26.23l-.05,0h0a3,3,0,0,0-.35.43l-.05.09a3,3,0,0,0-.21.38l-.06.15a3,3,0,0,0-.11.37c0,.05,0,.1,0,.16a3,3,0,0,0,0,.5s0,0,0,0H2Zm6,23v-20l49.82.14L92,26.74V46.5Zm14-32H78.93l7.62,6.23-28.77-.08L14,20.52Z"/>
</svg>

