<svg xmlns="http://www.w3.org/2000/svg" xmlns:xlink="http://www.w3.org/1999/xlink" version="1.1" x="0px" y="0px" viewBox="-10 -10 40 40"  xml:space="preserve" width="80mm" height="80mm">
    <g>
        <path fill="#000000" d="
             M 16.6,0
             h -13.2
             l -3.4,6.8
             v 13.2 
             h 20
             v -13.2 
             l-3.4,-6.8
             z
             
             m -14.6,8
             h 16
             v 4
             h -16
             v -4
             z 
             m 2.6,-6
             h 10.8
             l 2,4
             h-14.8 
             l 2,-4
             z 
             
             m 13.4,16
             h -16 
             v -4
             h 16
             v 4
             z
        "/>
        <path d="44.979,50.198c-0.021-0.063,2.649-2.8,3.345-4.419c-2.628,1.632-5.812,2.366-8.839,2.813   c-3.219,0.476-6.493,0.565-9.735,0.306c-2.782,1.9-5.666,4.23-7.381,7.189c-0.412,0.707-0.869,1.605-0.752,2.452   c0.182,1.294,2.083,1.39,3.071,1.39c3.714,0,7.507-1.525,10.772-3.167C38.904,55.031,42.212,52.897,44.979,50.198z"/>
        <rect x="4" y="9" fill="#000000" width="2" height="2"/>
        <rect x="8" y="9" fill="#000000" width="2" height="2"/>
        <rect x="4" y="15" fill="#000000" width="2" height="2"/>
        <rect x="8" y="15" fill="#000000" width="2" height="2"/>
        <rect x="12" y="9" fill="#000000" width="2" height="2"/>
        <rect x="12" y="15" fill="#000000" width="2" height="2"/>
        <rect x="16" y="9" fill="#000000" width="1" height="1"/>
        <rect x="16" y="15" fill="#000000" width="1" height="1"/>
    </g>
    

    
</svg>

 